<svg width="248" height="160" viewBox="0 0 248 160" fill="none" xmlns="http://www.w3.org/2000/svg">
<g clip-path="url(#clip0_1_69)">
<path d="M187.75 19.75H60.25C57.7647 19.75 55.75 21.7647 55.75 24.25V70.75C55.75 73.2353 57.7647 75.25 60.25 75.25H187.75C190.235 75.25 192.25 73.2353 192.25 70.75V24.25C192.25 21.7647 190.235 19.75 187.75 19.75Z" fill="white" stroke="#EAEAEA" stroke-width="1.5"/>
<path d="M125.5 55V32.836" stroke="black" stroke-width="6" stroke-linecap="square"/>
<path d="M112 46.239L125.611 59.85L139.026 46.436" stroke="black" stroke-width="6"/>
<path d="M71.45 62.928V37.964L85.3 51.815L99.232 37.884V62.749" stroke="black" stroke-width="6"/>
<path d="M177.439 60.268L148.17 31M148.561 60.268L177.83 31" stroke="#F9AC00" stroke-width="6"/>
</g>
<rect x="20.5" y="98.5" width="207" height="41" rx="15" stroke="#F0F0F0" stroke-width="3"/>
<path d="M49.362 124H47.542L44.924 116.608H46.618L48.48 122.698L50.37 116.608H51.98L49.362 124ZM56.8465 112.982C57.1452 112.982 57.3878 113.08 57.5745 113.276C57.7705 113.463 57.8685 113.696 57.8685 113.976C57.8685 114.256 57.7705 114.489 57.5745 114.676C57.3878 114.863 57.1452 114.956 56.8465 114.956C56.5385 114.956 56.2912 114.863 56.1045 114.676C55.9178 114.489 55.8245 114.256 55.8245 113.976C55.8245 113.687 55.9178 113.449 56.1045 113.262C56.3005 113.075 56.5478 112.982 56.8465 112.982ZM57.9245 122.852H59.9405V124H54.1585V122.852H56.3565V117.756H54.2285V116.608H57.9245V122.852ZM68.461 123.608C68.181 123.785 67.8543 123.925 67.481 124.028C67.1077 124.131 66.7157 124.182 66.305 124.182C65.465 124.182 64.8163 123.967 64.359 123.538C63.9017 123.099 63.673 122.507 63.673 121.76V117.756H62.035V116.608H63.673V114.956L65.241 114.774V116.608H67.747L67.565 117.756H65.241V121.746C65.241 122.147 65.3437 122.446 65.549 122.642C65.7543 122.829 66.081 122.922 66.529 122.922C67.0237 122.922 67.481 122.805 67.901 122.572L68.461 123.608ZM71.9835 120.808C72.0302 121.527 72.2355 122.068 72.5995 122.432C72.9729 122.787 73.4395 122.964 73.9995 122.964C74.3449 122.964 74.6715 122.913 74.9795 122.81C75.2969 122.698 75.6189 122.535 75.9455 122.32L76.6175 123.272C76.2722 123.561 75.8662 123.785 75.3995 123.944C74.9329 124.103 74.4429 124.182 73.9295 124.182C72.8002 124.182 71.9229 123.832 71.2975 123.132C70.6722 122.423 70.3595 121.48 70.3595 120.304C70.3595 119.567 70.4949 118.904 70.7655 118.316C71.0362 117.719 71.4282 117.252 71.9415 116.916C72.4549 116.58 73.0522 116.412 73.7335 116.412C74.7135 116.412 75.4882 116.743 76.0575 117.406C76.6362 118.059 76.9255 118.96 76.9255 120.108C76.9255 120.388 76.9115 120.621 76.8835 120.808H71.9835ZM73.7475 117.574C73.2435 117.574 72.8329 117.756 72.5155 118.12C72.1982 118.484 72.0162 119.025 71.9695 119.744H75.3995C75.3809 119.044 75.2315 118.507 74.9515 118.134C74.6715 117.761 74.2702 117.574 73.7475 117.574ZM79.4961 118.974H84.5641V120.262H79.4961V118.974ZM91.0826 116.412C92.8746 116.412 93.7706 117.705 93.7706 120.29C93.7706 121.457 93.5233 122.399 93.0286 123.118C92.5339 123.827 91.8293 124.182 90.9146 124.182C90.1399 124.182 89.5146 123.911 89.0386 123.37V126.842L87.4706 127.024V116.608H88.8286L88.9266 117.56C89.2066 117.187 89.5286 116.902 89.8926 116.706C90.2659 116.51 90.6626 116.412 91.0826 116.412ZM90.6486 117.616C90.3219 117.616 90.0233 117.714 89.7526 117.91C89.4819 118.106 89.2439 118.363 89.0386 118.68V122.138C89.4026 122.689 89.8879 122.964 90.4946 122.964C91.0359 122.964 91.4419 122.749 91.7126 122.32C91.9833 121.891 92.1186 121.219 92.1186 120.304C92.1186 119.361 91.9973 118.68 91.7546 118.26C91.5119 117.831 91.1433 117.616 90.6486 117.616ZM99.1131 121.984C99.1131 122.609 99.4865 122.922 100.233 122.922C100.606 122.922 100.998 122.838 101.409 122.67L101.801 123.762C101.288 124.042 100.653 124.182 99.8971 124.182C99.1598 124.182 98.5811 123.977 98.1611 123.566C97.7505 123.146 97.5451 122.572 97.5451 121.844V114.788H95.3191V113.64H99.1131V121.984ZM105.828 121.774C105.828 122.203 105.912 122.516 106.08 122.712C106.257 122.899 106.523 122.992 106.878 122.992C107.214 122.992 107.536 122.894 107.844 122.698C108.161 122.502 108.413 122.255 108.6 121.956V116.608H110.168V124H108.81L108.712 123.048C108.45 123.412 108.11 123.692 107.69 123.888C107.27 124.084 106.836 124.182 106.388 124.182C105.678 124.182 105.146 123.991 104.792 123.608C104.437 123.225 104.26 122.679 104.26 121.97V116.608H105.828V121.774ZM119.29 116.972C119.02 117.065 118.712 117.131 118.366 117.168C118.03 117.196 117.624 117.21 117.148 117.21C117.596 117.415 117.932 117.672 118.156 117.98C118.38 118.288 118.492 118.661 118.492 119.1C118.492 119.585 118.371 120.015 118.128 120.388C117.895 120.761 117.559 121.055 117.12 121.27C116.682 121.485 116.164 121.592 115.566 121.592C115.146 121.592 114.81 121.55 114.558 121.466C114.456 121.541 114.376 121.634 114.32 121.746C114.264 121.849 114.236 121.961 114.236 122.082C114.236 122.455 114.54 122.642 115.146 122.642H116.434C116.957 122.642 117.424 122.731 117.834 122.908C118.245 123.085 118.562 123.333 118.786 123.65C119.02 123.958 119.136 124.308 119.136 124.7C119.136 125.437 118.819 126.007 118.184 126.408C117.55 126.819 116.635 127.024 115.44 127.024C114.61 127.024 113.952 126.935 113.466 126.758C112.99 126.59 112.65 126.338 112.444 126.002C112.248 125.675 112.15 125.251 112.15 124.728H113.55C113.55 125.008 113.602 125.227 113.704 125.386C113.816 125.554 114.008 125.675 114.278 125.75C114.549 125.834 114.941 125.876 115.454 125.876C116.201 125.876 116.738 125.783 117.064 125.596C117.391 125.419 117.554 125.153 117.554 124.798C117.554 124.499 117.424 124.266 117.162 124.098C116.91 123.939 116.565 123.86 116.126 123.86H114.852C114.19 123.86 113.686 123.725 113.34 123.454C113.004 123.183 112.836 122.843 112.836 122.432C112.836 122.18 112.906 121.937 113.046 121.704C113.186 121.471 113.387 121.27 113.648 121.102C113.21 120.869 112.888 120.589 112.682 120.262C112.486 119.926 112.388 119.515 112.388 119.03C112.388 118.517 112.519 118.064 112.78 117.672C113.042 117.271 113.406 116.963 113.872 116.748C114.339 116.524 114.871 116.412 115.468 116.412C116.271 116.421 116.906 116.365 117.372 116.244C117.848 116.123 118.352 115.931 118.884 115.67L119.29 116.972ZM115.482 117.504C114.988 117.504 114.614 117.644 114.362 117.924C114.11 118.195 113.984 118.563 113.984 119.03C113.984 119.506 114.11 119.884 114.362 120.164C114.624 120.435 115.002 120.57 115.496 120.57C115.963 120.57 116.318 120.435 116.56 120.164C116.803 119.893 116.924 119.506 116.924 119.002C116.924 118.003 116.444 117.504 115.482 117.504ZM124.003 112.982C124.301 112.982 124.544 113.08 124.731 113.276C124.927 113.463 125.025 113.696 125.025 113.976C125.025 114.256 124.927 114.489 124.731 114.676C124.544 114.863 124.301 114.956 124.003 114.956C123.695 114.956 123.447 114.863 123.261 114.676C123.074 114.489 122.981 114.256 122.981 113.976C122.981 113.687 123.074 113.449 123.261 113.262C123.457 113.075 123.704 112.982 124.003 112.982ZM125.081 122.852H127.097V124H121.315V122.852H123.513V117.756H121.385V116.608H125.081V122.852ZM129.443 116.608H130.801L130.913 117.574C131.221 117.201 131.581 116.916 131.991 116.72C132.411 116.515 132.85 116.412 133.307 116.412C133.989 116.412 134.502 116.603 134.847 116.986C135.193 117.369 135.365 117.91 135.365 118.61V124H133.797V119.394C133.797 118.937 133.769 118.587 133.713 118.344C133.667 118.092 133.569 117.91 133.419 117.798C133.27 117.677 133.046 117.616 132.747 117.616C132.411 117.616 132.089 117.719 131.781 117.924C131.483 118.129 131.226 118.386 131.011 118.694V124H129.443V116.608ZM138.258 118.974H143.326V120.262H138.258V118.974ZM151.328 116.412C151.786 116.412 152.145 116.571 152.406 116.888C152.668 117.205 152.798 117.747 152.798 118.512V124H151.412V118.722C151.412 118.311 151.38 118.027 151.314 117.868C151.258 117.709 151.128 117.63 150.922 117.63C150.53 117.63 150.166 117.877 149.83 118.372V124H148.556V118.722C148.556 118.311 148.524 118.027 148.458 117.868C148.402 117.709 148.272 117.63 148.066 117.63C147.674 117.63 147.31 117.877 146.974 118.372V124H145.574V116.608H146.75L146.862 117.406C147.096 117.079 147.334 116.832 147.576 116.664C147.819 116.496 148.108 116.412 148.444 116.412C149.098 116.412 149.518 116.725 149.704 117.35C149.928 117.051 150.171 116.823 150.432 116.664C150.694 116.496 150.992 116.412 151.328 116.412ZM160.535 113.64V124H159.149L159.037 123.09C158.794 123.445 158.496 123.715 158.141 123.902C157.786 124.089 157.394 124.182 156.965 124.182C156.041 124.182 155.346 123.837 154.879 123.146C154.412 122.455 154.179 121.508 154.179 120.304C154.179 119.548 154.296 118.876 154.529 118.288C154.772 117.7 155.112 117.243 155.551 116.916C155.99 116.58 156.508 116.412 157.105 116.412C157.861 116.412 158.482 116.683 158.967 117.224V113.458L160.535 113.64ZM157.511 117.616C156.97 117.616 156.554 117.84 156.265 118.288C155.985 118.727 155.845 119.399 155.845 120.304C155.845 122.096 156.358 122.992 157.385 122.992C158.001 122.992 158.528 122.637 158.967 121.928V118.442C158.584 117.891 158.099 117.616 157.511 117.616ZM162.377 124L165.037 120.108L162.671 116.608H164.477L165.989 119.212L167.501 116.608H169.223L166.913 120.038L169.573 124H167.739L165.919 120.976L164.113 124H162.377ZM171.836 118.974H176.904V120.262H171.836V118.974ZM185.046 116.426C185.429 116.426 185.802 116.487 186.166 116.608L185.9 119.338H184.78V117.826C184.267 117.835 183.819 118.041 183.436 118.442C183.063 118.843 182.764 119.408 182.54 120.136V122.88H184.024V124H179.88V122.88H180.972V117.728H179.88V116.608H182.162L182.442 118.316C182.732 117.681 183.082 117.21 183.492 116.902C183.912 116.585 184.43 116.426 185.046 116.426ZM193.861 122.194C193.861 122.474 193.903 122.684 193.987 122.824C194.071 122.955 194.216 123.053 194.421 123.118L194.057 124.182C193.282 124.089 192.774 123.748 192.531 123.16C192.26 123.496 191.92 123.753 191.509 123.93C191.108 124.098 190.664 124.182 190.179 124.182C189.432 124.182 188.84 123.972 188.401 123.552C187.962 123.132 187.743 122.577 187.743 121.886C187.743 121.111 188.046 120.514 188.653 120.094C189.269 119.674 190.137 119.464 191.257 119.464H192.307V118.988C192.307 118.521 192.167 118.181 191.887 117.966C191.607 117.751 191.201 117.644 190.669 117.644C190.408 117.644 190.104 117.677 189.759 117.742C189.414 117.807 189.064 117.901 188.709 118.022L188.317 116.916C189.204 116.58 190.067 116.412 190.907 116.412C191.887 116.412 192.624 116.627 193.119 117.056C193.614 117.485 193.861 118.097 193.861 118.89V122.194ZM190.641 123.034C190.968 123.034 191.28 122.95 191.579 122.782C191.887 122.614 192.13 122.381 192.307 122.082V120.444H191.439C190.73 120.444 190.212 120.565 189.885 120.808C189.558 121.041 189.395 121.382 189.395 121.83C189.395 122.222 189.498 122.521 189.703 122.726C189.918 122.931 190.23 123.034 190.641 123.034ZM200.422 124L199.582 118.75L198.686 124H196.768L195.522 116.608H197.034L197.804 123.02L198.84 117.546H200.408L201.36 123.02L202.13 116.608H203.586L202.382 124H200.422Z" fill="#F9AC00"/>
<path d="M34 30.6643C32.343 30.6643 31.0785 30.9144 30.2064 31.4148C29.3343 31.8857 28.9564 32.7098 29.0727 33.8871L29.8576 42.0103C29.8866 42.2752 29.9012 42.6431 29.9012 43.114C29.9012 44.7327 29.4651 45.9689 28.593 46.8224C27.75 47.6465 26.4855 48.2057 24.7994 48.5C26.5436 48.7943 27.8227 49.3388 28.6366 50.1335C29.4797 50.9281 29.9012 52.1496 29.9012 53.7977C29.9012 54.3275 29.8866 54.7248 29.8576 54.9897L29.0727 63.1129C28.9564 64.3196 29.3343 65.1585 30.2064 65.6294C31.0785 66.1003 32.343 66.3357 34 66.3357V70C30.9477 70 28.593 69.5144 26.936 68.5431C25.3081 67.6013 24.4942 65.9825 24.4942 63.6869C24.4942 63.2454 24.5087 62.9069 24.5378 62.6715L25.3663 55.0339C25.3953 54.8867 25.4099 54.6513 25.4099 54.3275C25.4099 52.9736 24.9157 52.0024 23.9273 51.4138C22.939 50.7957 21.2965 50.4867 19 50.4867V46.5133C21.2965 46.5133 22.939 46.219 23.9273 45.6304C24.9157 45.0123 25.4099 44.0264 25.4099 42.6725C25.4099 42.3782 25.3953 42.1574 25.3663 42.0103L24.5378 34.3727C24.5087 34.1372 24.4942 33.7988 24.4942 33.3573C24.4942 31.0616 25.3081 29.4281 26.936 28.4569C28.593 27.4856 30.9477 27 34 27V30.6643Z" fill="url(#paint0_linear_1_69)"/>
<path d="M214 30.6643C215.657 30.6643 216.922 30.9144 217.794 31.4148C218.666 31.8857 219.044 32.7098 218.927 33.8871L218.142 42.0103C218.113 42.2752 218.099 42.6431 218.099 43.114C218.099 44.7327 218.535 45.9689 219.407 46.8224C220.25 47.6465 221.515 48.2057 223.201 48.5C221.456 48.7943 220.177 49.3388 219.363 50.1335C218.52 50.9281 218.099 52.1496 218.099 53.7977C218.099 54.3275 218.113 54.7248 218.142 54.9897L218.927 63.1129C219.044 64.3196 218.666 65.1585 217.794 65.6294C216.922 66.1003 215.657 66.3357 214 66.3357V70C217.052 70 219.407 69.5144 221.064 68.5431C222.692 67.6013 223.506 65.9825 223.506 63.6869C223.506 63.2454 223.491 62.9069 223.462 62.6715L222.634 55.0339C222.605 54.8867 222.59 54.6513 222.59 54.3275C222.59 52.9736 223.084 52.0024 224.073 51.4138C225.061 50.7957 226.703 50.4867 229 50.4867V46.5133C226.703 46.5133 225.061 46.219 224.073 45.6304C223.084 45.0123 222.59 44.0264 222.59 42.6725C222.59 42.3782 222.605 42.1574 222.634 42.0103L223.462 34.3727C223.491 34.1372 223.506 33.7988 223.506 33.3573C223.506 31.0616 222.692 29.4281 221.064 28.4569C219.407 27.4856 217.052 27 214 27V30.6643Z" fill="url(#paint1_linear_1_69)"/>
<defs>
<linearGradient id="paint0_linear_1_69" x1="18.8758" y1="25.5718" x2="40.0463" y2="34.5099" gradientUnits="userSpaceOnUse">
<stop stop-color="#41D1FF"/>
<stop offset="1" stop-color="#BD34FE"/>
</linearGradient>
<linearGradient id="paint1_linear_1_69" x1="229.124" y1="25.5718" x2="207.954" y2="34.5099" gradientUnits="userSpaceOnUse">
<stop stop-color="#41D1FF"/>
<stop offset="1" stop-color="#BD34FE"/>
</linearGradient>
<clipPath id="clip0_1_69">
<rect width="138" height="57" fill="white" transform="translate(55 19)"/>
</clipPath>
</defs>
</svg>
